<svg version="1.1" id="Layer_1" xmlns="http://www.w3.org/2000/svg" xmlns:xlink="http://www.w3.org/1999/xlink" x="0px" y="0px"
	 width="100%" viewBox="0 0 496 496" enable-background="new 0 0 496 496" xml:space="preserve">
<path fill="#000000" opacity="1.000000" stroke="none" 
	d="
M251.761047,185.126907 
	C248.750305,179.217316 245.889221,173.648087 242.682022,167.405106 
	C237.981323,175.242661 235.338379,182.977524 231.694839,190.219635 
	C229.686295,194.211899 229.695435,194.216492 224.176346,192.381134 
	C226.159409,187.845001 228.070160,183.320557 230.103867,178.852081 
	C235.412918,167.186920 240.754425,155.536346 246.140396,143.906540 
	C246.942764,142.173996 247.398773,139.855652 249.988968,139.882095 
	C252.560455,139.908356 252.964508,142.261673 253.830231,143.958023 
	C267.298706,170.348694 280.730591,196.758041 294.170502,223.163284 
	C294.472534,223.756653 294.748932,224.364075 295.072388,224.945404 
	C299.698395,233.258896 302.790405,242.817322 312.991241,247.180618 
	C298.783508,248.647675 284.774261,248.220673 270.499420,248.142181 
	C271.125519,245.079803 272.997375,245.398788 274.275940,245.137115 
	C278.753540,244.220688 279.716248,241.463974 277.981598,237.772568 
	C273.877899,229.039749 269.522675,220.425079 265.260345,211.766983 
	C264.214172,209.641907 262.319489,209.346680 260.200958,209.360199 
	C253.873535,209.400589 247.545471,209.393738 241.218094,209.346924 
	C239.242371,209.332306 236.951477,209.539185 236.898880,206.557953 
	C236.846130,203.568756 239.073868,203.686920 241.098648,203.679596 
	C247.168701,203.657639 253.238876,203.671707 261.007599,203.671707 
	C257.471619,196.595596 254.691147,191.031433 251.761047,185.126907 
z"/>
<path fill="#000000" opacity="1.000000" stroke="none" 
	d="
M231.570938,200.253693 
	C234.138245,203.288666 233.801468,206.487259 233.164139,209.596008 
	C232.402298,213.312027 229.161972,214.958069 225.601273,213.661774 
	C223.969070,213.067596 222.242477,211.303070 220.726929,213.428757 
	C219.462494,215.202240 218.841141,217.273743 220.312897,219.476898 
	C221.023117,220.540100 221.283966,221.903488 221.754959,223.148560 
	C224.282257,223.979416 225.738358,221.764099 227.725372,221.199692 
	C230.224335,220.489883 232.694412,220.041916 234.637405,222.288620 
	C236.605347,224.564148 236.803329,227.033035 235.056686,229.612305 
	C233.680161,231.645035 233.081177,234.269547 230.518890,235.374893 
	C229.080826,235.995255 228.608627,237.106445 228.924606,238.621201 
	C229.802246,242.828644 227.029953,244.162277 223.812347,244.174469 
	C220.501511,244.187012 219.213928,245.411301 219.352966,248.549561 
	C219.458344,250.928223 218.513672,252.470230 215.919815,252.350250 
	C213.911819,252.257355 212.536942,253.452988 210.945282,254.341827 
	C208.245316,255.849533 205.405594,256.090210 203.272171,253.451782 
	C201.008163,250.651840 195.993896,251.271576 195.939255,246.509537 
	C191.812881,247.632996 192.442383,250.394928 192.353394,252.804306 
	C192.279297,254.810883 192.511719,257.102325 189.687332,257.336670 
	C187.316452,257.533325 185.934036,256.144226 185.673874,253.823776 
	C185.503967,252.308365 184.776550,251.478760 183.396439,250.895142 
	C181.724518,250.188156 181.144989,248.221481 181.860794,247.117691 
	C184.117645,243.637451 183.305405,239.590286 184.456818,236.007492 
	C186.460754,229.772003 191.189484,229.147751 197.486771,234.091339 
	C199.977936,233.009064 200.764633,231.531433 199.562454,228.684891 
	C198.055466,225.116516 196.976334,221.383774 201.353241,218.596436 
	C202.636276,217.779373 202.557800,215.976440 202.655869,214.448944 
	C203.081512,207.819183 206.275574,205.951599 212.549194,208.500137 
	C214.170868,209.158905 215.523956,210.795471 217.503662,210.128799 
	C218.316589,209.460220 218.467560,208.697220 218.182251,207.831161 
	C217.376740,205.386154 215.419586,202.838516 218.131454,200.507309 
	C221.061035,197.988907 224.386520,196.757217 228.282867,198.425140 
	C229.336075,198.876007 230.580109,198.897415 231.570938,200.253693 
z"/>
<path fill="#000000" opacity="1.000000" stroke="none" 
	d="
M300.287628,277.460754 
	C298.684784,276.792542 298.395416,275.592529 299.949188,275.729919 
	C307.414185,276.389954 314.794281,274.071136 322.297852,275.524384 
	C331.924500,277.388885 335.545776,285.070496 329.150970,292.580292 
	C325.148621,297.280487 326.429474,300.101929 329.500854,303.923340 
	C334.137421,309.692200 337.968231,316.213776 345.851471,319.278320 
	C335.368805,322.358093 330.849274,320.936676 325.630280,313.230377 
	C323.114044,309.514923 320.753448,305.693817 318.334778,301.912659 
	C317.394165,300.442169 316.366608,299.217896 314.327972,299.693390 
	C312.017517,300.232300 312.377563,302.109772 312.337219,303.696533 
	C312.256927,306.854645 312.432556,310.022522 312.270569,313.174438 
	C312.118195,316.139648 313.163086,318.259674 316.654205,319.316315 
	C312.337219,320.570251 304.989655,320.725739 298.590576,319.785278 
	C302.719879,317.831573 302.974518,314.642670 302.917633,311.095123 
	C302.768311,301.783325 302.888031,292.467499 302.851105,283.153473 
	C302.842682,281.029907 303.139435,278.703247 300.287628,277.460754 
M317.595856,296.028748 
	C322.638184,293.230682 324.646912,284.593048 321.161621,280.266510 
	C319.067474,277.666840 316.368134,277.334930 313.685974,279.240631 
	C311.877014,280.525879 311.623779,293.879669 313.212372,295.549988 
	C314.243866,296.634552 315.537537,296.695221 317.595856,296.028748 
z"/>
<path fill="#000000" opacity="1.000000" stroke="none" 
	d="
M203.410553,301.227509 
	C201.180237,313.674042 192.809891,320.747375 179.750107,320.989990 
	C173.296768,321.109924 166.828003,320.398865 158.785828,319.981842 
	C164.598541,317.505402 163.648956,313.379364 163.662079,309.592926 
	C163.692108,300.926575 163.587921,292.258881 163.710892,283.594177 
	C163.758209,280.260681 163.255981,277.549438 159.300339,276.979218 
	C159.627930,276.405426 159.778503,275.908325 159.931168,275.907684 
	C168.221802,275.872772 176.510651,274.608246 184.801285,275.738159 
	C197.319580,277.444244 205.332321,288.253204 203.410553,301.227509 
M193.671143,302.926758 
	C193.660904,299.936798 193.876556,296.925720 193.599274,293.960724 
	C192.661682,283.934906 186.279663,277.752167 177.837128,278.136658 
	C174.514145,278.287994 172.747269,279.804291 172.697556,282.907166 
	C172.540604,292.706421 172.457123,302.510986 172.617920,312.309052 
	C172.678711,316.012726 174.923798,317.826294 178.839920,317.855621 
	C186.478287,317.912750 190.744659,313.979584 193.671143,302.926758 
z"/>
<path fill="#000000" opacity="1.000000" stroke="none" 
	d="
M271.626465,284.574158 
	C277.187347,294.562408 276.408356,304.909363 269.738953,312.763641 
	C263.169312,320.500427 251.192764,323.533875 241.496185,319.916931 
	C231.835770,316.313538 225.746063,305.893066 227.253677,295.545868 
	C228.999802,283.561890 237.773514,275.465820 249.755554,274.691833 
	C258.662354,274.116425 266.195007,276.550751 271.626465,284.574158 
M265.132111,294.371521 
	C264.308868,289.722778 262.967285,285.343475 259.429688,281.901337 
	C251.947861,274.621368 241.486679,276.765747 238.478226,286.712769 
	C235.725815,295.813202 236.435944,304.929535 242.249191,312.893158 
	C248.247482,321.110321 258.886780,319.976532 263.167297,310.761749 
	C265.448395,305.851227 266.258118,300.607788 265.132111,294.371521 
z"/>
<path fill="#000000" opacity="1.000000" stroke="none" 
	d="
M125.301056,295.820587 
	C129.874329,303.913177 132.531723,312.708099 139.473129,319.784485 
	C133.867996,319.784485 128.599274,319.784485 122.980995,319.784485 
	C126.495682,314.061890 121.601761,310.247589 119.502396,305.738373 
	C118.893608,304.430664 117.327110,304.362885 115.957916,304.362183 
	C113.461494,304.360901 110.964966,304.336975 108.468681,304.353577 
	C102.977997,304.390167 99.288246,308.225067 99.378784,313.610687 
	C99.440125,317.258911 102.797302,317.637695 105.602516,319.877258 
	C99.582085,319.877258 94.347969,319.877258 88.389282,319.877258 
	C96.382545,314.425720 98.104622,305.778809 101.805809,298.363708 
	C105.637970,290.686188 109.002296,282.775116 113.070534,273.873779 
	C118.739204,281.140778 121.142448,288.782043 125.301056,295.820587 
M109.839088,290.615845 
	C107.350899,293.335663 105.872215,296.454132 105.709961,300.298706 
	C109.225677,301.401855 112.415497,301.359192 116.081787,300.359009 
	C115.204636,296.344604 114.425720,292.589813 109.839088,290.615845 
z"/>
<path fill="#000000" opacity="1.000000" stroke="none" 
	d="
M399.559723,296.555481 
	C404.050751,304.484985 406.624908,313.102539 413.534576,319.890442 
	C407.795807,320.726074 402.584442,320.249786 397.289856,320.235748 
	C400.196167,312.607971 394.560547,304.332062 386.716125,304.339569 
	C385.716339,304.340515 384.716522,304.343842 383.716736,304.343384 
	C376.637573,304.340149 375.728943,305.159363 373.755188,311.419128 
	C372.189240,316.385742 375.842194,317.669983 378.855560,319.958374 
	C373.597626,319.958374 368.339691,319.958374 363.081757,319.958374 
	C367.824677,317.058014 369.430573,312.234924 371.503387,307.795593 
	C375.872253,298.438843 380.114899,289.023224 384.462219,279.656281 
	C385.206390,278.052948 385.552124,276.119110 387.906586,274.903229 
	C392.713898,281.517242 395.505646,289.181641 399.559723,296.555481 
M380.062469,301.020203 
	C383.342743,301.433502 386.582520,301.335510 390.112183,300.378601 
	C389.320923,295.942810 387.356598,292.378845 384.312073,288.281189 
	C382.216003,292.835327 379.449615,296.151093 380.062469,301.020203 
z"/>
<path fill="#000000" opacity="1.000000" stroke="none" 
	d="
M251.530609,371.092468 
	C252.791992,371.520325 253.971939,372.404663 254.590927,372.110077 
	C263.602448,367.821930 272.668152,372.829895 281.785522,371.844330 
	C291.173248,370.829559 300.756714,371.594818 310.254303,371.635773 
	C319.580811,371.675995 328.907104,371.780365 338.233154,371.885529 
	C338.499237,371.888519 338.761597,372.219543 339.053986,372.416687 
	C338.304626,373.710083 337.021820,373.301025 335.978638,373.311829 
	C313.664032,373.542786 291.359009,375.135590 269.040375,374.085449 
	C262.486176,373.777069 256.462708,376.643311 249.988861,376.430420 
	C247.131653,376.336456 244.355133,376.225098 241.847046,374.571808 
	C238.359467,372.272919 234.933334,375.062103 231.335800,374.912079 
	C208.548874,373.962067 185.731384,373.746582 162.924286,373.273041 
	C162.291824,373.259888 161.663010,373.070129 160.903702,371.933624 
	C162.674332,371.846710 164.444809,371.687225 166.215591,371.683899 
	C187.543808,371.643616 208.872086,371.617981 230.200333,371.615448 
	C232.545761,371.615173 234.853607,371.645660 237.010803,370.484070 
	C238.377640,369.748077 240.047714,369.286957 241.321899,370.171997 
	C244.524857,372.396729 247.798203,371.974121 251.530609,371.092468 
z"/>
</svg>